<?xml version="1.0" encoding="utf-8"?>
<!-- Generator: Adobe Illustrator 22.0.1, SVG Export Plug-In . SVG Version: 6.00 Build 0)  -->
<svg version="1.1" id="delete" xmlns="http://www.w3.org/2000/svg" xmlns:xlink="http://www.w3.org/1999/xlink" x="0px" y="0px"
	 viewBox="0 0 20 20" style="enable-background:new 0 0 20 20;" xml:space="preserve">
<style type="text/css">
	.st0{fill:#656695;}
</style>
<g>
	<g>
		<g>
			<path class="st0" d="M15.5,6.4c0-0.2,0.1-0.3,0.3-0.3c0.2,0,0.3,0.1,0.3,0.3v10.8c0,0.5-0.2,0.9-0.5,1.2
				c-0.3,0.3-0.8,0.5-1.2,0.5H5.5c-0.5,0-0.9-0.2-1.2-0.5c-0.3-0.3-0.5-0.8-0.5-1.2V6.4c0-0.2,0.1-0.3,0.3-0.3s0.3,0.1,0.3,0.3v10.8
				c0,0.3,0.1,0.6,0.3,0.8c0.2,0.2,0.5,0.3,0.8,0.3h8.8c0.3,0,0.6-0.1,0.8-0.3s0.3-0.5,0.3-0.8L15.5,6.4L15.5,6.4z"/>
			<path class="st0" d="M7.8,16.5c0,0.2-0.1,0.3-0.3,0.3c-0.2,0-0.3-0.1-0.3-0.3v-10c0-0.2,0.1-0.3,0.3-0.3c0.2,0,0.3,0.1,0.3,0.3
				V16.5z"/>
			<path class="st0" d="M10.2,16.5c0,0.2-0.1,0.3-0.3,0.3c-0.2,0-0.3-0.1-0.3-0.3v-10c0-0.2,0.1-0.3,0.3-0.3c0.2,0,0.3,0.1,0.3,0.3
				V16.5z"/>
			<path class="st0" d="M12.6,16.5c0,0.2-0.1,0.3-0.3,0.3S12,16.7,12,16.5v-10c0-0.2,0.1-0.3,0.3-0.3s0.3,0.1,0.3,0.3V16.5
				L12.6,16.5z"/>
			<path class="st0" d="M7.6,2.6c0,0.2-0.1,0.3-0.3,0.3c-0.2,0-0.3-0.1-0.3-0.3c0-0.5,0.2-0.9,0.5-1.2c0.3-0.3,0.8-0.5,1.2-0.5H11
				c0.5,0,0.9,0.2,1.2,0.5c0.3,0.3,0.5,0.8,0.5,1.2c0,0.2-0.1,0.3-0.3,0.3s-0.3-0.1-0.3-0.3c0-0.3-0.1-0.6-0.3-0.8
				c-0.2-0.2-0.5-0.3-0.8-0.3H8.8C8.5,1.5,8.2,1.6,8,1.8C7.8,2,7.6,2.3,7.6,2.6z"/>
			<path class="st0" d="M3.3,3.5h13.2c0.3,0,0.5,0.1,0.7,0.3l0,0c0.2,0.2,0.3,0.4,0.3,0.7v0.7c0,0.2-0.1,0.3-0.3,0.3h0H2.6
				c-0.2,0-0.3-0.1-0.3-0.3v0V4.5c0-0.3,0.1-0.5,0.3-0.7l0,0C2.8,3.6,3,3.5,3.3,3.5L3.3,3.5z M16.5,4H3.3C3.2,4,3.1,4.1,3,4.2l0,0
				C2.9,4.2,2.9,4.3,2.9,4.5v0.4h14V4.5c0-0.1,0-0.2-0.1-0.3l0,0C16.7,4.1,16.6,4,16.5,4z"/>
		</g>
	</g>
</g>
</svg>
