<?xml version="1.0" encoding="utf-8"?>
<!-- Generator: Adobe Illustrator 22.0.1, SVG Export Plug-In . SVG Version: 6.00 Build 0)  -->
<svg version="1.1" id="Layer_2" xmlns="http://www.w3.org/2000/svg" xmlns:xlink="http://www.w3.org/1999/xlink" x="0px" y="0px"
	 viewBox="0 0 20 20" style="enable-background:new 0 0 20 20;" xml:space="preserve">
<style type="text/css">
	.st0{fill:#656695;}
</style>
<path class="st0" d="M18.6,1.4c-1.2-1.2-3.2-1.2-4.4,0L1.8,13.8c0,0,0,0,0,0c0,0,0,0,0,0c0,0,0,0.1,0,0.1s0,0,0,0l0,0l-1.2,5.1
	c0,0,0,0,0,0.1l0,0c0,0,0,0.1,0,0.1c0,0,0,0,0,0s0,0.1,0.1,0.1c0,0,0.1,0.1,0.1,0.1c0,0,0.1,0,0.1,0c0,0,0.1,0,0.1,0L6,18.3h0h0
	c0,0,0,0,0.1,0c0,0,0,0,0,0l0,0L18.6,5.8C19.8,4.6,19.8,2.6,18.6,1.4z M18.1,1.9C19,2.7,19,4.1,18.4,5L15,1.6
	C15.9,1,17.3,1.1,18.1,1.9z M16.4,7L13,3.6l0.5-0.5l3.4,3.4L16.4,7z M2.2,17.8c-0.1-0.1-0.3-0.1-0.5,0l-0.3,0.2l0.9-3.7l1.5-0.2
	L3.7,16v0v0v0c0,0,0,0,0,0.1c0,0,0,0,0,0.1l0,0c0,0,0,0,0.1,0l0,0c0,0,0,0,0.1,0h0h0l0,0l0,0l0,0l0,0h0l1.8-0.2l-0.2,1.5l-3.7,0.9
	l0.3-0.3C2.4,18.2,2.4,18,2.2,17.8z M6.5,15.9l7.7-7.7c0.1-0.1,0.1-0.3,0-0.5c-0.1-0.1-0.3-0.1-0.5,0L6,15.4l-1.7,0.2L4.6,14
	l7.7-7.7c0.1-0.1,0.1-0.3,0-0.5c-0.1-0.1-0.3-0.1-0.5,0l-7.7,7.7L3,13.6l9.5-9.5l3.4,3.4L6.4,17L6.5,15.9z M17.4,6L14,2.6l0.5-0.5
	l3.4,3.4L17.4,6z"/>
</svg>
