<?xml version="1.0" encoding="utf-8"?>
<!-- Generator: Adobe Illustrator 22.0.1, SVG Export Plug-In . SVG Version: 6.00 Build 0)  -->
<svg version="1.1" id="Слой_1" xmlns="http://www.w3.org/2000/svg" xmlns:xlink="http://www.w3.org/1999/xlink" x="0px" y="0px"
	 viewBox="0 0 40 40" style="enable-background:new 0 0 40 40;" xml:space="preserve">
<style type="text/css">
	.st0{fill:#FFFFFF;}
</style>
<g>
	<g>
		<path class="st0" d="M37.2,37.5h-1.6V13.9c0-1.1-0.9-2-2-2H30c-1.1,0-2,0.9-2,2v23.6h-4.1V24.6c0-1.1-0.9-2-2-2h-3.6
			c-1.1,0-2,0.9-2,2v12.9h-4.1v-6.7c0-1.1-0.9-2-2-2H6.5c-1.1,0-2,0.9-2,2v6.7H2.8c-0.4,0-0.7,0.3-0.7,0.7S2.3,39,2.8,39h34.5
			c0.4,0,0.7-0.3,0.7-0.7S37.7,37.5,37.2,37.5z M10.6,37.5H6v-6.7c0-0.3,0.2-0.5,0.5-0.5h3.6c0.3,0,0.5,0.2,0.5,0.5L10.6,37.5
			L10.6,37.5z M22.4,37.5h-4.7V24.6c0-0.3,0.2-0.5,0.5-0.5h3.6c0.3,0,0.5,0.2,0.5,0.5V37.5z M34.1,37.5h-4.7V13.9
			c0-0.3,0.2-0.5,0.5-0.5h3.6c0.3,0,0.5,0.2,0.5,0.5L34.1,37.5L34.1,37.5z"/>
	</g>
</g>
<g>
	<g>
		<path class="st0" d="M35.6,1.8c0-0.2-0.1-0.4-0.2-0.6S35,1,34.8,1c0,0,0,0,0,0h-4.5c-0.4,0-0.7,0.3-0.7,0.7s0.3,0.7,0.7,0.7h2.8
			l-7.3,7.3L23,7.1c-0.1-0.1-0.3-0.2-0.5-0.2s-0.4,0.1-0.5,0.2L8.6,20.4c-0.3,0.3-0.3,0.8,0,1c0.1,0.1,0.3,0.2,0.5,0.2
			c0.2,0,0.4-0.1,0.5-0.2L22.5,8.6l2.8,2.8c0.3,0.3,0.8,0.3,1,0l7.9-7.9V6c0,0.4,0.3,0.7,0.7,0.7c0.4,0,0.7-0.3,0.7-0.7L35.6,1.8
			C35.6,1.8,35.6,1.8,35.6,1.8z"/>
	</g>
</g>
<g>
	<g>
		<circle class="st0" cx="6.6" cy="23.5" r="0.7"/>
	</g>
</g>
</svg>
