<?xml version="1.0" encoding="utf-8"?>
<!-- Generator: Adobe Illustrator 22.0.1, SVG Export Plug-In . SVG Version: 6.00 Build 0)  -->
<svg version="1.1" id="respondent" xmlns="http://www.w3.org/2000/svg" xmlns:xlink="http://www.w3.org/1999/xlink" x="0px" y="0px"
	 viewBox="0 0 20 20" style="enable-background:new 0 0 20 20;" xml:space="preserve">
<style type="text/css">
	.st0{fill:#656695;}
</style>
<g>
	<g>
		<path class="st0" d="M7.9,11.9H4.9c-2.1,0-3.7,1.6-3.8,3.7c-0.1,0.6-0.3,1.7,0.1,2.1c1,1,3.4,1.4,5.2,1.4c1.8,0,4.1-0.4,5.2-1.4
			c0.4-0.4,0.2-1.5,0.1-2.1C11.6,13.5,10,11.9,7.9,11.9z M11.1,17.1c-0.7,0.7-2.5,1.2-4.6,1.2c-2.1,0-3.9-0.5-4.6-1.2
			c-0.1-0.2-0.4-4.3,3.1-4.5c0.8,0,3.1,0,3.1,0C11.4,12.6,11.1,16.9,11.1,17.1L11.1,17.1z"/>
		<path class="st0" d="M6.4,11.2c1.7,0,3.1-1.4,3-3c0-1.7-1.3-3-3-3c-1.6,0-3,1.4-3,3C3.3,9.8,4.7,11.2,6.4,11.2z M6.4,5.9
			c1.3,0,2.3,1,2.3,2.3s-1,2.3-2.3,2.3s-2.3-1-2.3-2.3S5.1,5.9,6.4,5.9z"/>
		<path class="st0" d="M9.9,1v5.6h1.2v2.7l2.7-2.7H19V1H9.9z M18.3,5.8h-4.8l-1.7,1.7V5.8h-1.2V1.8h7.6V5.8z"/>
		<path class="st0" d="M14.4,2.8c0-0.1,0.1-0.1,0.2-0.1c0.1,0,0.2,0,0.2,0c0,0.1,0.1,0.2,0.1,0.2c0,0.1,0,0.2-0.1,0.2l-0.3,0.3
			c-0.1,0.1-0.2,0.2-0.2,0.3c0,0.1,0,0.2,0,0.3v0.3h0.7V4.2c0-0.1,0-0.2,0-0.2c0,0,0.1-0.1,0.2-0.2c0.1-0.1,0.2-0.2,0.2-0.2
			c0,0,0-0.1,0.1-0.1c0,0,0.1-0.1,0.1-0.1c0,0,0,0,0.1-0.1c0,0,0-0.2,0-0.3c0-0.3-0.1-0.5-0.3-0.7c-0.2-0.2-0.4-0.2-0.7-0.2
			c-0.3,0-0.5,0.1-0.7,0.3c-0.2,0.2-0.3,0.4-0.3,0.7h0.8C14.3,3,14.3,2.9,14.4,2.8L14.4,2.8z"/>
		<path class="st0" d="M14.6,4.6c-0.1,0-0.2,0-0.3,0.1c-0.1,0.1-0.1,0.2-0.1,0.3c0,0.1,0,0.2,0.1,0.3c0.1,0.1,0.2,0.1,0.3,0.1
			c0.1,0,0.2,0,0.3-0.1C14.9,5.3,15,5.2,15,5.1c0-0.1,0-0.2-0.1-0.3S14.7,4.6,14.6,4.6z"/>
	</g>
</g>
</svg>
