<?xml version="1.0" encoding="utf-8"?>
<!-- Generator: Adobe Illustrator 22.0.1, SVG Export Plug-In . SVG Version: 6.00 Build 0)  -->
<svg version="1.1" id="Layer_1" xmlns="http://www.w3.org/2000/svg" xmlns:xlink="http://www.w3.org/1999/xlink" x="0px" y="0px"
	 viewBox="0 0 512 512" style="enable-background:new 0 0 512 512;" xml:space="preserve">
<style type="text/css">
	.st0{fill:#656695;}
</style>
<g>
	<g>
		<path class="st0" d="M304,104.3V72.9h20.2c4.8,0,8.7-3.9,8.7-8.7V8.7c0-4.8-3.9-8.7-8.7-8.7H187.9c-4.8,0-8.7,3.9-8.7,8.7v55.6
			c0,4.8,3.9,8.7,8.7,8.7h19.4v31.5c-15.1,3.7-29.6,9-43.2,15.8l-40.9-49.1c-3.1-3.7-8.5-4.2-12.2-1.1L68,105.8
			c-1.8,1.5-2.9,3.6-3.1,5.9c-0.2,2.3,0.5,4.6,2,6.3l38.4,46c-34.7,37-56,86.7-56,141.3C49.3,419.3,142,512,256,512
			s206.7-92.7,206.7-206.7C462.7,207.9,394.9,125.9,304,104.3z M196.6,55.6V17.3h119v38.2L196.6,55.6L196.6,55.6z M286.6,72.9v28
			c-10-1.5-20.2-2.3-30.6-2.3c-10.7,0-21.1,0.8-31.4,2.4V72.9H286.6z M85.8,113.6l29.6-24.7l33.2,39.9c-11,6.7-21.4,14.5-30.9,23.1
			L85.8,113.6z M256,494.7c-104.4,0-189.4-84.9-189.4-189.4S151.6,116,256,116s189.4,84.9,189.4,189.4S360.4,494.7,256,494.7z"/>
	</g>
</g>
<g>
	<g>
		<path class="st0" d="M256,140.4c-90.9,0-164.9,74-164.9,164.9s74,164.9,164.9,164.9s164.9-74,164.9-164.9
			C420.9,214.4,346.9,140.4,256,140.4z M264.7,296.6V158c74.5,4.3,134.3,64.2,138.7,138.7L264.7,296.6L264.7,296.6z M256,452.9
			c-81.4,0-147.6-66.2-147.6-147.6c0-78.5,61.6-142.8,138.9-147.3v147.3c0,4.8,3.9,8.7,8.7,8.7h147.3
			C398.8,391.3,334.5,452.9,256,452.9z"/>
	</g>
</g>
<g>
	<g>
		<circle class="st0" cx="364.4" cy="367.9" r="8.7"/>
	</g>
</g>
<g>
	<g>
		<circle class="st0" cx="318.6" cy="413.7" r="8.7"/>
	</g>
</g>
<g>
	<g>
		<circle class="st0" cx="256" cy="430.5" r="8.7"/>
	</g>
</g>
<g>
	<g>
		<circle class="st0" cx="193.4" cy="413.7" r="8.7"/>
	</g>
</g>
<g>
	<g>
		<circle class="st0" cx="147.6" cy="367.9" r="8.7"/>
	</g>
</g>
<g>
	<g>
		<circle class="st0" cx="130.8" cy="305.3" r="8.7"/>
	</g>
</g>
<g>
	<g>
		<circle class="st0" cx="147.6" cy="242.7" r="8.7"/>
	</g>
</g>
<g>
	<g>
		<circle class="st0" cx="193.4" cy="196.9" r="8.7"/>
	</g>
</g>
<g>
	<g>
		<circle class="st0" cx="318.6" cy="196.9" r="8.7"/>
	</g>
</g>
<g>
	<g>
		<circle class="st0" cx="364.4" cy="242.7" r="8.7"/>
	</g>
</g>
</svg>
