<?xml version="1.0" encoding="utf-8"?>
<!-- Generator: Adobe Illustrator 22.0.1, SVG Export Plug-In . SVG Version: 6.00 Build 0)  -->
<svg version="1.1" id="Capa_1" xmlns="http://www.w3.org/2000/svg" xmlns:xlink="http://www.w3.org/1999/xlink" x="0px" y="0px"
	 viewBox="0 0 60 60" style="enable-background:new 0 0 60 60;" xml:space="preserve">
<style type="text/css">
	.st0{fill:#656695;}
</style>
<g>
	<path class="st0" d="M46,16c-5.2,0-9.7,2.8-12.1,7H7c-3.9,0-7,3.1-7,7s3.1,7,7,7h26.9c2.4,4.2,6.9,7,12.1,7c7.7,0,14-6.3,14-14
		S53.7,16,46,16z M32.9,35H7c-2.8,0-5-2.2-5-5s2.2-5,5-5h25.9c-0.1,0.1-0.1,0.3-0.1,0.4c-0.1,0.2-0.1,0.4-0.2,0.6
		c-0.1,0.2-0.1,0.5-0.2,0.8c0,0.2-0.1,0.3-0.1,0.5c-0.1,0.3-0.1,0.6-0.1,0.9c0,0.1,0,0.3-0.1,0.4c0,0.5-0.1,0.9-0.1,1.4
		s0,0.9,0.1,1.4c0,0.1,0,0.3,0.1,0.4c0,0.3,0.1,0.6,0.1,0.9c0,0.2,0.1,0.3,0.1,0.5c0.1,0.3,0.1,0.5,0.2,0.8c0.1,0.2,0.1,0.4,0.2,0.6
		C32.8,34.7,32.9,34.9,32.9,35z M46,42c-4.7,0-8.7-2.7-10.7-6.6c-0.2-0.4-0.3-0.7-0.5-1.1c0-0.1-0.1-0.2-0.1-0.4
		c-0.1-0.3-0.2-0.6-0.3-0.9c0-0.1-0.1-0.3-0.1-0.4c-0.1-0.3-0.1-0.6-0.2-0.9c0-0.1,0-0.3-0.1-0.4c0-0.4-0.1-0.9-0.1-1.3
		s0-0.9,0.1-1.3c0-0.1,0-0.3,0.1-0.4c0-0.3,0.1-0.6,0.2-0.9c0-0.2,0.1-0.3,0.1-0.4c0.1-0.3,0.2-0.6,0.3-0.9c0-0.1,0.1-0.2,0.1-0.4
		c0.1-0.4,0.3-0.7,0.5-1.1c2-3.9,6-6.6,10.7-6.6c6.6,0,12,5.4,12,12S52.6,42,46,42z"/>
	<circle class="st0" cx="26" cy="30" r="1"/>
	<circle class="st0" cx="29" cy="27" r="1"/>
	<circle class="st0" cx="23" cy="27" r="1"/>
	<circle class="st0" cx="29" cy="33" r="1"/>
	<circle class="st0" cx="23" cy="33" r="1"/>
	<circle class="st0" cx="20" cy="30" r="1"/>
	<circle class="st0" cx="14" cy="30" r="1"/>
	<circle class="st0" cx="17" cy="27" r="1"/>
	<circle class="st0" cx="11" cy="27" r="1"/>
	<circle class="st0" cx="17" cy="33" r="1"/>
	<circle class="st0" cx="11" cy="33" r="1"/>
	<circle class="st0" cx="8" cy="30" r="1"/>
	<circle class="st0" cx="5" cy="27" r="1"/>
	<circle class="st0" cx="5" cy="33" r="1"/>
</g>
</svg>
