<?xml version="1.0" encoding="utf-8"?>
<!-- Generator: Adobe Illustrator 22.0.1, SVG Export Plug-In . SVG Version: 6.00 Build 0)  -->
<svg version="1.1" id="Capa_1" xmlns="http://www.w3.org/2000/svg" xmlns:xlink="http://www.w3.org/1999/xlink" x="0px" y="0px"
	 viewBox="0 0 60 60" style="enable-background:new 0 0 60 60;" xml:space="preserve">
<style type="text/css">
	.st0{fill:#8496B1;}
</style>
<g>
	<path class="st0" d="M53,23H26.1c-2.4-4.2-6.9-7-12.1-7C6.3,16,0,22.3,0,30s6.3,14,14,14c5.2,0,9.7-2.8,12.1-7H53c3.9,0,7-3.1,7-7
		S56.9,23,53,23z M14,42C7.4,42,2,36.6,2,30s5.4-12,12-12c4.7,0,8.7,2.7,10.7,6.6c0.2,0.4,0.3,0.7,0.5,1.1c0,0.1,0.1,0.2,0.1,0.4
		c0.1,0.3,0.2,0.6,0.3,0.9c0,0.1,0.1,0.3,0.1,0.4c0.1,0.3,0.1,0.6,0.2,0.9c0,0.1,0,0.3,0.1,0.4c0,0.4,0.1,0.9,0.1,1.3s0,0.9-0.1,1.3
		c0,0.1,0,0.3-0.1,0.4c0,0.3-0.1,0.6-0.2,0.9c0,0.2-0.1,0.3-0.1,0.4c-0.1,0.3-0.2,0.6-0.3,0.9c0,0.1-0.1,0.2-0.1,0.4
		c-0.1,0.4-0.3,0.7-0.5,1.1C22.7,39.3,18.7,42,14,42z M53,35H27.1c0.1-0.1,0.1-0.3,0.1-0.4c0.1-0.2,0.1-0.4,0.2-0.6
		c0.1-0.3,0.1-0.5,0.2-0.8c0-0.2,0.1-0.3,0.1-0.5c0.1-0.3,0.1-0.6,0.1-0.9c0-0.1,0-0.3,0.1-0.4c0-0.5,0.1-0.9,0.1-1.4s0-0.9-0.1-1.4
		c0-0.1,0-0.3-0.1-0.4c0-0.3-0.1-0.6-0.1-0.9c0-0.2-0.1-0.3-0.1-0.5c-0.1-0.3-0.1-0.5-0.2-0.8c-0.1-0.2-0.1-0.4-0.2-0.6
		c0-0.1-0.1-0.3-0.1-0.4H53c2.8,0,5,2.2,5,5S55.8,35,53,35z"/>
	<circle class="st0" cx="34" cy="30" r="1"/>
	<circle class="st0" cx="31" cy="27" r="1"/>
	<circle class="st0" cx="37" cy="27" r="1"/>
	<circle class="st0" cx="31" cy="33" r="1"/>
	<circle class="st0" cx="37" cy="33" r="1"/>
	<circle class="st0" cx="40" cy="30" r="1"/>
	<circle class="st0" cx="46" cy="30" r="1"/>
	<circle class="st0" cx="43" cy="27" r="1"/>
	<circle class="st0" cx="49" cy="27" r="1"/>
	<circle class="st0" cx="43" cy="33" r="1"/>
	<circle class="st0" cx="49" cy="33" r="1"/>
	<circle class="st0" cx="52" cy="30" r="1"/>
	<circle class="st0" cx="55" cy="27" r="1"/>
	<circle class="st0" cx="55" cy="33" r="1"/>
</g>
</svg>
