<?xml version="1.0" encoding="utf-8"?>
<!-- Generator: Adobe Illustrator 22.0.1, SVG Export Plug-In . SVG Version: 6.00 Build 0)  -->
<svg version="1.1" xmlns="http://www.w3.org/2000/svg" xmlns:xlink="http://www.w3.org/1999/xlink" x="0px" y="0px"
	 viewBox="0 0 40 40" style="enable-background:new 0 0 40 40;" xml:space="preserve">
<style type="text/css">
	.st0{display:none;}
	.st1{display:inline;}
	.st2{fill:#FFFFFF;}
</style>
<g id="Слой_1" class="st0">
	<g class="st1">
		<g>
			<path class="st2" d="M37.2,37.5h-1.6V13.9c0-1.1-0.9-2-2-2H30c-1.1,0-2,0.9-2,2v23.6h-4.1V24.6c0-1.1-0.9-2-2-2h-3.6
				c-1.1,0-2,0.9-2,2v12.9h-4.1v-6.7c0-1.1-0.9-2-2-2H6.5c-1.1,0-2,0.9-2,2v6.7H2.8c-0.4,0-0.7,0.3-0.7,0.7S2.3,39,2.8,39h34.5
				c0.4,0,0.7-0.3,0.7-0.7S37.7,37.5,37.2,37.5z M10.6,37.5H6v-6.7c0-0.3,0.2-0.5,0.5-0.5h3.6c0.3,0,0.5,0.2,0.5,0.5L10.6,37.5
				L10.6,37.5z M22.4,37.5h-4.7V24.6c0-0.3,0.2-0.5,0.5-0.5h3.6c0.3,0,0.5,0.2,0.5,0.5V37.5z M34.1,37.5h-4.7V13.9
				c0-0.3,0.2-0.5,0.5-0.5h3.6c0.3,0,0.5,0.2,0.5,0.5L34.1,37.5L34.1,37.5z"/>
		</g>
	</g>
	<g class="st1">
		<g>
			<path class="st2" d="M35.6,1.8c0-0.2-0.1-0.4-0.2-0.6S35,1,34.8,1c0,0,0,0,0,0h-4.5c-0.4,0-0.7,0.3-0.7,0.7s0.3,0.7,0.7,0.7h2.8
				l-7.3,7.3L23,7.1c-0.1-0.1-0.3-0.2-0.5-0.2s-0.4,0.1-0.5,0.2L8.6,20.4c-0.3,0.3-0.3,0.8,0,1c0.1,0.1,0.3,0.2,0.5,0.2
				c0.2,0,0.4-0.1,0.5-0.2L22.5,8.6l2.8,2.8c0.3,0.3,0.8,0.3,1,0l7.9-7.9V6c0,0.4,0.3,0.7,0.7,0.7c0.4,0,0.7-0.3,0.7-0.7L35.6,1.8
				C35.6,1.8,35.6,1.8,35.6,1.8z"/>
		</g>
	</g>
	<g class="st1">
		<g>
			<circle class="st2" cx="6.6" cy="23.5" r="0.7"/>
		</g>
	</g>
</g>
<g id="Слой_2">
	<g>
		<g>
			<path class="st2" d="M23.6,8.7V6.4h1.5c0.4,0,0.6-0.3,0.6-0.6V1.6c0-0.4-0.3-0.6-0.6-0.6H14.9c-0.4,0-0.6,0.3-0.6,0.6v4.1
				c0,0.4,0.3,0.6,0.6,0.6h1.4v2.3c-1.1,0.3-2.2,0.7-3.2,1.2l-3-3.6C9.9,6,9.5,6,9.2,6.2L6,8.9C5.9,9,5.8,9.1,5.8,9.3
				c0,0.2,0,0.3,0.1,0.5l2.8,3.4c-2.6,2.7-4.2,6.4-4.2,10.5C4.7,32.1,11.5,39,20,39s15.3-6.9,15.3-15.3
				C35.3,16.4,30.3,10.3,23.6,8.7z M15.6,5.1V2.3h8.8v2.8L15.6,5.1L15.6,5.1z M22.3,6.4v2.1c-0.7-0.1-1.5-0.2-2.3-0.2
				c-0.8,0-1.6,0.1-2.3,0.2V6.4H22.3z M7.4,9.4l2.2-1.8l2.5,3c-0.8,0.5-1.6,1.1-2.3,1.7L7.4,9.4z M20,37.7
				c-7.7,0-14.1-6.3-14.1-14.1S12.2,9.6,20,9.6s14.1,6.3,14.1,14.1S27.7,37.7,20,37.7z"/>
		</g>
	</g>
	<g>
		<g>
			<path class="st2" d="M20,11.4c-6.7,0-12.2,5.5-12.2,12.2S13.2,35.9,20,35.9s12.2-5.5,12.2-12.2C32.2,16.9,26.7,11.4,20,11.4z
				 M20.6,23V12.7c5.5,0.3,10,4.8,10.3,10.3L20.6,23L20.6,23z M20,34.6c-6,0-11-4.9-11-11c0-5.8,4.6-10.6,10.3-10.9v10.9
				c0,0.4,0.3,0.6,0.6,0.6h10.9C30.6,30,25.8,34.6,20,34.6z"/>
		</g>
	</g>
	<g>
		<g>
			<circle class="st2" cx="28" cy="28.3" r="0.6"/>
		</g>
	</g>
	<g>
		<g>
			<circle class="st2" cx="24.6" cy="31.7" r="0.6"/>
		</g>
	</g>
	<g>
		<g>
			<circle class="st2" cx="20" cy="33" r="0.6"/>
		</g>
	</g>
	<g>
		<g>
			<circle class="st2" cx="15.4" cy="31.7" r="0.6"/>
		</g>
	</g>
	<g>
		<g>
			<circle class="st2" cx="12" cy="28.3" r="0.6"/>
		</g>
	</g>
	<g>
		<g>
			<circle class="st2" cx="10.7" cy="23.7" r="0.6"/>
		</g>
	</g>
	<g>
		<g>
			<circle class="st2" cx="12" cy="19" r="0.6"/>
		</g>
	</g>
	<g>
		<g>
			<circle class="st2" cx="15.4" cy="15.6" r="0.6"/>
		</g>
	</g>
	<g>
		<g>
			<circle class="st2" cx="24.6" cy="15.6" r="0.6"/>
		</g>
	</g>
	<g>
		<g>
			<circle class="st2" cx="28" cy="19" r="0.6"/>
		</g>
	</g>
</g>
</svg>
