<?xml version="1.0" encoding="iso-8859-1"?>
<!-- Generator: Adobe Illustrator 19.0.0, SVG Export Plug-In . SVG Version: 6.00 Build 0)  -->
<svg version="1.1" id="Layer_1" xmlns="http://www.w3.org/2000/svg" xmlns:xlink="http://www.w3.org/1999/xlink" x="0px" y="0px"
	 viewBox="0 0 512 512" style="enable-background:new 0 0 512 512;" xml:space="preserve">
<g>
	<g>
		<path d="M303.978,104.256V72.904h20.247c4.788,0,8.668-3.881,8.668-8.668V8.668c0-4.787-3.88-8.668-8.668-8.668h-136.34
			c-4.788,0-8.668,3.881-8.668,8.668v55.568c0,4.787,3.88,8.668,8.668,8.668h19.399v31.533
			c-15.114,3.666-29.582,8.995-43.202,15.786l-40.937-49.075c-3.067-3.678-8.532-4.17-12.208-1.104l-42.896,35.782
			c-1.765,1.472-2.872,3.586-3.08,5.876c-0.207,2.29,0.505,4.568,1.977,6.332l38.358,45.983
			c-34.698,36.987-55.985,86.697-55.985,141.292C49.311,419.279,142.031,512,255.999,512s206.688-92.721,206.688-206.688
			C462.688,207.856,394.886,125.949,303.978,104.256z M196.553,55.568V17.336h119.002v38.231H196.553z M286.642,72.905v27.992
			c-10.002-1.493-20.232-2.275-30.643-2.275c-10.665,0-21.143,0.813-31.378,2.379V72.905H286.642z M85.802,113.587l29.584-24.678
			l33.244,39.85c-11.027,6.731-21.373,14.468-30.919,23.078L85.802,113.587z M255.999,494.664
			c-104.409,0-189.352-84.943-189.352-189.352s84.943-189.352,189.352-189.352s189.352,84.943,189.352,189.352
			S360.408,494.664,255.999,494.664z"/>
	</g>
</g>
<g>
	<g>
		<path d="M255.999,140.393c-90.937,0-164.918,73.982-164.918,164.918s73.982,164.917,164.918,164.917
			s164.917-73.982,164.917-164.917C420.917,214.375,346.935,140.393,255.999,140.393z M264.668,296.643V157.991
			c74.487,4.336,134.315,64.164,138.651,138.653L264.668,296.643L264.668,296.643z M255.999,452.892
			c-81.377,0-147.582-66.205-147.582-147.581c0-78.467,61.557-142.817,138.914-147.321v147.321c0,4.787,3.88,8.668,8.668,8.668
			h147.32C398.816,391.337,334.466,452.892,255.999,452.892z"/>
	</g>
</g>
<g>
	<g>
		<circle cx="364.409" cy="367.9" r="8.668"/>
	</g>
</g>
<g>
	<g>
		<circle cx="318.584" cy="413.715" r="8.668"/>
	</g>
</g>
<g>
	<g>
		<circle cx="255.999" cy="430.485" r="8.668"/>
	</g>
</g>
<g>
	<g>
		<circle cx="193.415" cy="413.715" r="8.668"/>
	</g>
</g>
<g>
	<g>
		<circle cx="147.59" cy="367.9" r="8.668"/>
	</g>
</g>
<g>
	<g>
		<circle cx="130.819" cy="305.316" r="8.668"/>
	</g>
</g>
<g>
	<g>
		<circle cx="147.59" cy="242.72" r="8.668"/>
	</g>
</g>
<g>
	<g>
		<circle cx="193.415" cy="196.906" r="8.668"/>
	</g>
</g>
<g>
	<g>
		<circle cx="318.584" cy="196.906" r="8.668"/>
	</g>
</g>
<g>
	<g>
		<circle cx="364.409" cy="242.72" r="8.668"/>
	</g>
</g>
<g>
</g>
<g>
</g>
<g>
</g>
<g>
</g>
<g>
</g>
<g>
</g>
<g>
</g>
<g>
</g>
<g>
</g>
<g>
</g>
<g>
</g>
<g>
</g>
<g>
</g>
<g>
</g>
<g>
</g>
</svg>
